# xmcd
#
# Track frame offsets: 
#        150
#        10874
#        22612
#        35833
#        48408
#        60538
#        71147
#        85765
#        96881
#        108599
#        117862
#        130077
#        142182
#        153885
#        166299
#        176841
#        195873
#        208019
#        222923
#        231776
#        247958
#        259554
#        271434
#        283905
#        295846
#
# Disc length: 4069 seconds
#
# Revision: 0
# Processed by: cddbd v1.5.2PL0 Copyright (c) Steve Scherf et al.
# Submitted via: ExactAudioCopy v0.99pb5
#
DISCID=680fe319
DTITLE=Various Artist - Romantic Remember Love Song Vol.1 CD 2
DYEAR=2003
DGENRE=Pop
TTITLE0=Summer Kisses Winter Tears - Elvis Presley
TTITLE1=Let It Be Me - Everly Brothers
TTITLE2=Tell Laura I Love Her - Ray Petersons
TTITLE3=I Really Don't Want To Know - Tommy Edwards
TTITLE4=Never On Sunday - Don Costa
TTITLE5=Am I That Easy To Forget - Debby Raynolds
TTITLE6=Rain And Tears - Aphrodite's Child
TTITLE7=Runaway - Del Shandon
TTITLE8=Tonight - Ferrante and Teacher
TTITLE9=Wooden Heart - Joe Dowell
TTITLE10=Will You Love Me Tomorrow - Shirelles
TTITLE11=The Lion Sleeps Tonight - The Tokens
TTITLE12=Corrina Corrina - Ray Peterson
TTITLE13=Moon River - Andy Williams
TTITLE14=Breaking Up Is Hard To Do - Neil Sedaka
TTITLE15=I Can't Stop Loving You - Ray Charles
TTITLE16=Sealed With A Kiss - Brian Hyland
TTITLE17=Al Di La - Emilio Pericoli
TTITLE18=Crying In The Rain - Everly Brother
TTITLE19=Where Have All The Flower Gone - The Kingston Trio
TTITLE20=Sixteen Tons - Tennessee Ernie Ford
TTITLE21=Only You - The Platters
TTITLE22=Love Me Tender - Elvis Presley
TTITLE23=The Great Prentender - The Platters
TTITLE24=Whatever Will be (Que Sera Sera) - Doris Day
EXTD=
EXTT0=
EXTT1=
EXTT2=
EXTT3=
EXTT4=
EXTT5=
EXTT6=
EXTT7=
EXTT8=
EXTT9=
EXTT10=
EXTT11=
EXTT12=
EXTT13=
EXTT14=
EXTT15=
EXTT16=
EXTT17=
EXTT18=
EXTT19=
EXTT20=
EXTT21=
EXTT22=
EXTT23=
EXTT24=
PLAYORDER=
